<?xml version="1.0" standalone="no"?>
<!DOCTYPE svg PUBLIC "-//W3C//DTD SVG 20010904//EN"
 "http://www.w3.org/TR/2001/REC-SVG-20010904/DTD/svg10.dtd">
<svg version="1.0" xmlns="http://www.w3.org/2000/svg"
 width="300.000000pt" height="300.000000pt" viewBox="0 0 300.000000 300.000000"
 preserveAspectRatio="xMidYMid meet">
<metadata>
Created by potrace 1.11, written by Peter Selinger 2001-2013
</metadata>
<g transform="translate(0.000000,300.000000) scale(0.100000,-0.100000)"
fill="#000000" stroke="none">
<path d="M365 2900 c-137 -38 -211 -98 -269 -220 l-31 -65 0 -1095 0 -1095 33
-70 c39 -80 109 -152 181 -183 96 -42 135 -44 1261 -40 1213 4 1153 0 1261 80
82 61 129 138 148 245 7 37 11 409 11 1088 0 1021 0 1032 -21 1099 -26 82 -78
150 -152 199 -105 70 -48 67 -1282 66 -610 -1 -1123 -5 -1140 -9z m1921 -879
c-3 -5 2 -15 12 -22 16 -13 16 -12 2 6 -8 11 8 -2 36 -30 l50 -50 -20 -27
c-21 -30 -140 -85 -208 -96 -47 -8 -73 -37 -48 -52 17 -11 9 -13 -14 -4 -9 3
-13 11 -9 17 3 5 1 7 -5 3 -15 -9 -63 15 -55 28 3 6 3 8 -2 4 -6 -6 -65 17
-65 25 0 1 51 2 114 2 66 0 112 4 109 9 -4 5 4 7 15 4 12 -4 22 -2 22 3 0 5 7
9 15 9 12 0 15 16 15 88 0 48 3 97 6 110 7 23 7 23 21 2 8 -11 12 -24 9 -29z
m234 -33 c-16 -34 -28 -64 -26 -66 2 -2 21 1 43 7 21 6 58 11 83 11 45 0 44
-1 -37 -28 -95 -32 -165 -78 -246 -160 l-58 -59 -45 10 c-24 6 -44 14 -44 18
0 5 -8 6 -17 2 -10 -3 -15 -2 -11 2 5 5 -7 17 -25 28 l-32 21 50 13 c68 19
185 65 199 79 6 6 27 30 46 54 30 37 134 130 145 130 3 0 -9 -28 -25 -62z
m-769 -268 c-30 -27 -57 -48 -60 -45 -4 2 -7 -4 -8 -14 -1 -12 13 -22 45 -34
50 -18 147 -75 140 -83 -7 -6 -98 8 -94 15 2 3 -45 6 -106 6 l-110 0 -27 -37
c-16 -21 -32 -34 -36 -30 -5 4 -5 2 -1 -5 7 -12 -26 -36 -38 -28 -3 3 -4 2 -1
-2 8 -10 -34 -35 -48 -27 -6 4 -9 4 -5 -1 11 -11 -29 -38 -44 -29 -7 5 -8 3
-3 -6 6 -10 4 -12 -9 -7 -9 4 -15 3 -12 -1 3 -5 -15 -18 -39 -30 l-44 -21 16
34 c9 19 19 33 22 31 3 -2 7 7 7 20 2 28 3 28 -60 9 -70 -21 -72 -20 -33 24
19 21 61 77 94 123 55 78 58 81 61 54 2 -16 -8 -65 -23 -108 -15 -44 -25 -81
-22 -84 6 -6 47 108 54 151 6 38 30 49 84 38 25 -5 30 -3 24 7 -6 10 0 12 29
7 25 -4 34 -2 30 5 -5 7 0 9 14 6 14 -4 20 -2 15 5 -4 6 2 8 15 5 14 -4 20 -2
15 5 -4 6 2 8 16 4 13 -3 20 -3 17 0 -5 5 157 90 174 92 3 0 -19 -22 -49 -49z
m-123 -197 c64 -82 67 -110 10 -78 -24 12 -60 28 -80 35 -21 6 -38 14 -38 18
0 11 54 62 66 62 7 0 26 -17 42 -37z m-883 -104 c-4 -5 -1 -9 5 -9 7 0 10 -7
6 -15 -3 -8 -1 -15 5 -15 6 0 8 -7 5 -16 -3 -8 -2 -13 3 -10 5 3 11 -4 14 -16
6 -20 9 -21 129 -15 68 3 114 2 103 -2 -50 -18 -215 -101 -215 -108 0 -4 5
-15 11 -23 9 -12 10 -11 6 8 -3 12 -1 22 5 22 5 0 48 19 96 43 61 29 97 41
120 39 17 -2 32 -7 32 -11 0 -4 -54 -29 -119 -55 -66 -26 -122 -54 -125 -62
-3 -8 -1 -14 5 -14 6 0 8 -7 5 -16 -4 -10 -2 -13 6 -8 7 5 9 0 6 -14 -4 -12
-3 -20 2 -17 4 3 10 -7 13 -20 4 -23 3 -24 -12 -11 -25 22 -88 45 -153 56 -66
10 -57 14 -210 -87 -38 -25 -73 -41 -79 -37 -7 4 -9 3 -6 -3 4 -6 0 -14 -9
-17 -9 -4 -14 -9 -11 -12 3 -4 60 28 125 70 136 87 160 92 271 52 55 -19 66
-27 73 -51 4 -16 6 -30 4 -32 -2 -2 -43 10 -92 26 l-88 28 -155 -63 c-142 -59
-198 -78 -161 -54 8 5 15 13 15 17 0 19 80 131 90 126 5 -4 7 -3 3 2 -10 11
21 67 32 60 6 -3 7 1 4 9 -3 9 -10 16 -16 16 -5 0 -6 6 -2 13 4 6 4 9 -1 5 -4
-4 -24 2 -44 14 -35 20 -72 50 -42 33 10 -5 12 -4 7 4 -4 6 -12 9 -17 6 -5 -4
-18 0 -30 8 -19 14 -15 16 55 22 41 4 91 5 110 3 19 -2 32 0 29 5 -3 5 9 7 27
5 18 -1 32 2 32 7 0 19 19 46 28 40 6 -3 7 0 4 8 -3 8 0 18 7 23 8 5 10 3 4
-7 -5 -8 -4 -11 1 -6 5 5 9 16 9 25 0 9 5 16 11 15 7 -1 11 5 10 15 0 9 5 16
12 15 6 -2 11 0 10 5 -1 4 2 18 7 32 l8 25 14 -33 c7 -18 11 -37 8 -43z"/>
<path d="M428 1273 c6 -2 18 -2 25 0 6 3 1 5 -13 5 -14 0 -19 -2 -12 -5z"/>
</g>
</svg>
