<svg xmlns="http://www.w3.org/2000/svg" viewBox="0 0 40 50"><defs><style>.cls-1{fill:#375677;}.cls-2,.cls-3{fill:#fff;}.cls-3{fill-rule:evenodd;}</style></defs><title>EP18_DM_075_Parkplan_Homepage_Pin_Parkplan_Gastro</title><g id="pin"><path class="cls-1" d="M20,.7A20,20,0,0,1,33.63,5.91a17.08,17.08,0,0,1,5.65,12.58c0,7.33-4.71,12.2-9.74,17.39C26.2,39.34,22.7,43,20.44,47.51l-.44.88-.44-.88C17.3,43,13.8,39.34,10.45,35.88,5.43,30.69.72,25.82.72,18.49A17.08,17.08,0,0,1,6.37,5.91,20,20,0,0,1,20,.7Z"/><path class="cls-2" d="M20,50l-1.08-2.18c-2.22-4.47-5.66-8-9-11.46C4.83,31.09,0,26.1,0,18.49A17.73,17.73,0,0,1,5.87,5.4,20.76,20.76,0,0,1,20,0,20.76,20.76,0,0,1,34.13,5.4,17.73,17.73,0,0,1,40,18.49c0,7.61-4.83,12.59-9.93,17.87-3.34,3.45-6.77,7-9,11.46ZM20,1.4a19.25,19.25,0,0,0-13.14,5A16.32,16.32,0,0,0,1.43,18.49c0,7.05,4.64,11.84,9.55,16.91,3.3,3.41,6.7,6.93,9,11.4,2.31-4.46,5.72-8,9-11.39,4.92-5.08,9.56-9.87,9.56-16.92A16.32,16.32,0,0,0,33.14,6.42,19.25,19.25,0,0,0,20,1.4Z"/></g><g id="icon"><path class="cls-3" d="M32,11.31l0,0a1.53,1.53,0,0,1-.31.37c-1.69,1.78-3.4,3.54-5.07,5.34a2,2,0,0,1-2.83.46l-.1,0-2.49,2.32a6.35,6.35,0,0,1,.68.5l6.5,6.48c.13.14.27.26.39.4A1.21,1.21,0,0,1,28.67,29a1.16,1.16,0,0,1-1.73,0c-1.21-1.22-2.39-2.47-3.58-3.7l-3.28-3.4c-.13-.14-.27-.25-.43-.41-.53.54-1.06,1.06-1.57,1.59l-6.3,6.49a1.31,1.31,0,0,1-1.31.49,1.25,1.25,0,0,1-.3-.12,1.22,1.22,0,0,1-.25-2c1-1,2-1.95,3-2.91L17.7,20.3c.15-.14.28-.3.48-.51L16,17.92a2.64,2.64,0,0,1-2.38-.62,8.31,8.31,0,0,1-.86-.71,24.63,24.63,0,0,1-3.64-4.37,14.89,14.89,0,0,1-1-1.91,2.53,2.53,0,0,1-.15-1,1.08,1.08,0,0,1,.74-1.07A1.13,1.13,0,0,1,10,8.47a4.93,4.93,0,0,1,.4.39l8.86,8.84.61.58,2.18-2.41-.24-.49A1.71,1.71,0,0,1,22,13.44a4.68,4.68,0,0,1,.43-.46c1.8-1.71,3.59-3.42,5.4-5.12a1.83,1.83,0,0,1,.35-.33.26.26,0,0,1,.33.07.25.25,0,0,1,0,.31,1.62,1.62,0,0,1-.32.41l-3.81,4a1.78,1.78,0,0,0-.36.42.36.36,0,0,0,.06.36.41.41,0,0,0,.36,0,1.56,1.56,0,0,0,.36-.32l3.85-3.71a2.87,2.87,0,0,1,.52-.47l.09,0a.3.3,0,0,1,.33.07c.1.08.08.2,0,.31s0,.07,0,.11a1.79,1.79,0,0,1-.37.41c-1.27,1.35-2.55,2.69-3.81,4-.18.18-.52.38-.2.67s.46-.06.63-.22L30,10.26a2.56,2.56,0,0,1,.47-.41l0,0a.27.27,0,0,1,.32,0,.3.3,0,0,1,.07.36.19.19,0,0,0,0,.07,1.53,1.53,0,0,1-.32.36c-1.31,1.35-2.62,2.69-3.92,4-.08.08-.17.16-.25.25s-.17.36,0,.47a.52.52,0,0,0,.42,0,1.59,1.59,0,0,0,.36-.33l4-3.75a1.8,1.8,0,0,1,.36-.32l.07,0a.23.23,0,0,1,.29,0A.44.44,0,0,1,32,11.31Z"/></g></svg>