<?xml version="1.0" standalone="no"?>
<!DOCTYPE svg PUBLIC "-//W3C//DTD SVG 20010904//EN"
 "http://www.w3.org/TR/2001/REC-SVG-20010904/DTD/svg10.dtd">
<svg version="1.0" xmlns="http://www.w3.org/2000/svg"
 width="300.000000pt" height="300.000000pt" viewBox="0 0 300.000000 300.000000"
 preserveAspectRatio="xMidYMid meet">
<metadata>
Created by potrace 1.11, written by Peter Selinger 2001-2013
</metadata>
<g transform="translate(0.000000,300.000000) scale(0.100000,-0.100000)"
fill="#000000" stroke="none">
<path d="M365 2899 c-123 -33 -184 -77 -243 -176 -24 -40 -46 -93 -52 -123 -6
-33 -10 -437 -10 -1079 0 -1091 0 -1076 48 -1181 42 -92 147 -172 252 -193 36
-7 415 -12 1120 -14 1034 -3 1067 -3 1160 17 75 16 107 28 150 58 66 47 120
120 146 199 18 56 19 104 19 1135 0 848 -3 1080 -12 1089 -7 7 -13 22 -13 33
0 46 -83 143 -172 199 -76 48 -70 47 -1253 46 -611 -1 -1123 -5 -1140 -10z
m1993 -943 l40 -38 35 38 c19 22 55 54 80 72 l45 32 -29 -53 c-16 -28 -29 -56
-29 -62 0 -6 33 -9 82 -8 67 2 77 0 53 -8 -140 -47 -196 -80 -295 -175 l-65
-62 -75 19 c-73 18 -210 80 -229 103 -7 8 17 11 87 12 54 1 117 8 142 16 l45
14 2 89 c2 50 5 101 8 114 6 22 8 21 34 -20 16 -24 47 -61 69 -83z m-603 -237
c-63 -60 -77 -79 -54 -79 18 0 132 -60 164 -87 23 -18 25 -23 10 -19 -63 17
-265 33 -265 22 0 -2 16 -27 35 -56 48 -71 46 -85 -7 -55 -24 13 -61 29 -84
35 -39 12 -43 11 -90 -22 -27 -20 -89 -57 -137 -83 l-89 -47 31 61 c17 33 27
61 23 61 -5 0 -35 -9 -67 -20 -32 -11 -60 -20 -62 -20 -3 0 18 26 45 58 27 31
69 86 94 121 l45 64 74 -2 c86 -3 184 25 314 88 44 22 81 40 83 40 1 1 -27
-27 -63 -60z m-999 -301 c15 -40 31 -79 37 -85 7 -9 37 -11 111 -7 55 2 112 7
126 10 l25 5 -25 -21 -25 -20 38 0 c20 0 37 -3 37 -7 0 -5 -57 -30 -126 -57
-101 -40 -124 -52 -118 -65 28 -70 36 -104 25 -111 -7 -4 -10 -17 -6 -32 l7
-25 -88 30 c-102 36 -94 37 -292 -46 -84 -35 -132 -51 -128 -42 3 8 37 62 76
120 l71 105 -83 52 -82 53 35 7 c18 4 78 10 131 13 l98 7 62 94 c35 51 64 93
65 94 1 0 14 -33 29 -72z"/>
</g>
</svg>
